<?xml version="1.0" encoding="utf-8"?>
<!-- Generator: Adobe Illustrator 24.1.2, SVG Export Plug-In . SVG Version: 6.00 Build 0)  -->
<svg version="1.1" id="Layer_1" xmlns="http://www.w3.org/2000/svg" xmlns:xlink="http://www.w3.org/1999/xlink" x="0px" y="0px"
	 width="107px" height="26px" viewBox="0 0 107 26" style="enable-background:new 0 0 107 26;" xml:space="preserve">
<style type="text/css">
	.st0{fill:#FFFFFF;}
</style>
<path class="st0" d="M1.4,1.9H0V1.7h1.7c1.2,0,2.6-0.3,2.6-1.6V0h0.3v11.9C5.9,9.6,8,8.1,11,8.1c4.8,0,8.1,3.6,8.1,8.9
	c0,4.9-3.7,8.8-8.1,8.8c-2.7,0-5.3-1.4-6.3-4.2c-0.3-0.6-0.5-1-0.9-1c-0.5,0-1.1,1.1-1.2,4.1v0.9l-0.3,0.1l0.2-3.6V2.9
	C2.3,2.3,2,1.9,1.4,1.9z M10.5,25.2c3.7,0,6.1-3,6.1-7.5c0-5.1-2.3-8.5-6-8.5c-2.3,0-4.6,1.2-6,4v5.2C4.6,22.9,7.5,25.2,10.5,25.2z
	 M30.5,8.2c4.2,0,6.9,2.3,6.9,5.9c0,0.8-0.3,1.2-1,1.2H24.1C24,15.9,24,16.6,24,17.2c0,4.5,2.8,8,7,8c2.3,0,4.7-0.8,6.1-2.8l0.4,0.3
	c-1.6,2.1-4.1,3.3-7.2,3.3c-5.3,0-8.9-3.6-8.9-9C21.4,12.1,25.5,8.2,30.5,8.2z M34.4,14.6c0.3,0,0.5-0.2,0.5-0.5
	c0-3.3-1.8-5.3-4.5-5.3c-3.2,0-5.5,2.3-6.1,6.1L34.4,14.6z M38.8,25.5h1c1.4,0,1.6-0.4,1.6-4.4V2.9c0-0.6-0.3-0.9-0.9-0.9h-1.4V1.7
	h1.7c1.2,0,2.6-0.3,2.6-1.6V0h0.2v21.1c0,4,0.2,4.4,1.6,4.4h1v0.3h-7.6L38.8,25.5L38.8,25.5z M56.1,8.2c2.7,0,5.3,1.4,6.3,4.2
	l0.1,0.3V2.9c0-0.6-0.3-0.9-0.9-0.9h-1.4V1.7h1.7c1.2,0,2.6-0.3,2.6-1.6V0h0.3v24.1c0,0.8,0.3,1,0.8,1c0.4,0,0.9-0.3,0.9-1v-0.4h0.3
	V24c0,1-0.8,1.8-1.8,1.8c-0.9,0-1.7-0.8-1.7-1.7l-0.2-2.9H63c-1.3,2.9-3.5,4.8-7,4.8c-4.8,0-8.1-3.6-8.1-8.9
	C48,12.2,51.7,8.2,56.1,8.2z M56.5,25c2.3,0,4.7-1.3,6-4.2v-5c0-4.6-2.9-6.8-5.8-6.8c-3.7,0-6.2,3-6.2,7.5
	C50.6,21.7,52.9,25,56.5,25z M68.5,17.1c0-4.9,4.3-8.8,9.5-8.8c5.6,0,9.5,3.6,9.5,8.8c0,4.9-4.3,8.9-9.5,8.9
	C72.4,26,68.5,22.4,68.5,17.1z M85,17.6c0-4.9-3.2-8.8-7.1-8.8c-4.1,0-6.8,3.1-6.8,7.9c0,4.9,3.1,8.8,7,8.8
	C82.2,25.5,85,22.3,85,17.6z M75.5,3.8l-0.7-0.9l0.7-0.6c0.1-0.1,0.2-0.1,0.3-0.1c0.2,0,0.2,0,0.3,0.2l3.4,4.1l-0.3,0.3L75.5,3.8z
	 M89.2,25.5h1c1.4,0,1.6-0.4,1.6-4.5V10.1c0-0.7-0.4-1-0.8-1s-0.9,0.4-0.9,1v1.1h-0.3v-1.1c0-1.2,1-1.8,2-1.8s1.8,0.5,1.8,1.6v1.3
	c0,0.4,0,2.8-0.1,3h0.2c0.1-0.5,0.3-1.4,0.5-1.9c0.9-2.5,3-4.2,5.4-4.2c3.2,0,5,1.7,5,4.4v8.3c0,4.1,0.2,4.5,1.6,4.5h0.8v0.3h-7.2
	v-0.3h1c1.4,0,1.6-0.4,1.6-4.5v-7.5c0-2.9-0.9-4.4-2.9-4.4c-3,0-5.3,2.7-5.3,6.8v5.1c0,4.1,0.2,4.5,1.6,4.5h1v0.3h-7.6L89.2,25.5
	L89.2,25.5z"/>
</svg>
